<?xml version="1.0" encoding="UTF-8" standalone="no"?>
<!DOCTYPE svg PUBLIC "-//W3C//DTD SVG 1.1//EN"
 "http://www.w3.org/Graphics/SVG/1.1/DTD/svg11.dtd">
<!-- Generated by graphviz version 2.26.3 (20100126.1600)
 -->
<!-- Title: _anonymous_0 Pages: 1 -->
<svg width="525pt" height="422pt"
 viewBox="0.00 0.00 525.00 422.00" xmlns="http://www.w3.org/2000/svg" xmlns:xlink="http://www.w3.org/1999/xlink">
<g id="graph1" class="graph" transform="scale(1 1) rotate(0) translate(4 418)">
<title>_anonymous_0</title>
<polygon fill="white" stroke="white" points="-4,5 -4,-418 522,-418 522,5 -4,5"/>
<!-- p_7__to_0_ -->
<g id="node1" class="node"><title>p_7__to_0_</title>
<ellipse fill="none" stroke="black" cx="225" cy="-395" rx="58.8978" ry="18.3848"/>
<text text-anchor="middle" x="225" y="-391.4" font-family="Times Roman,serif" font-size="14.00">7.00,0.00</text>
</g>
<!-- frac_p_7__to_0_ -->
<g id="node2" class="node"><title>frac_p_7__to_0_</title>
<polygon fill="none" stroke="black" points="0,-301 0,-339 450,-339 450,-301 0,-301"/>
<text text-anchor="start" x="8.5" y="-327.667" font-family="Times Roman,serif" font-size="10.00" fill="red">0</text>
<text text-anchor="start" x="15.5" y="-327.667" font-family="Times Roman,serif" font-size="10.00">:(1.0, 0.0)</text>
<polyline fill="none" stroke="black" points="0,-320 71,-320 "/>
<text text-anchor="start" x="14" y="-308.667" font-family="Times Roman,serif" font-size="10.00">0</text>
<polyline fill="none" stroke="black" points="35,-301 35,-320 "/>
<text text-anchor="start" x="49.5" y="-308.667" font-family="Times Roman,serif" font-size="10.00">0</text>
<polyline fill="none" stroke="black" points="71,-301 71,-339 "/>
<text text-anchor="start" x="79.5" y="-327.667" font-family="Times Roman,serif" font-size="10.00" fill="red">1</text>
<text text-anchor="start" x="86.5" y="-327.667" font-family="Times Roman,serif" font-size="10.00">:(3.0, 0.0)</text>
<polyline fill="none" stroke="black" points="71,-320 142,-320 "/>
<text text-anchor="start" x="85" y="-308.667" font-family="Times Roman,serif" font-size="10.00">0</text>
<polyline fill="none" stroke="black" points="106,-301 106,-320 "/>
<text text-anchor="start" x="120.5" y="-308.667" font-family="Times Roman,serif" font-size="10.00">0</text>
<polyline fill="none" stroke="black" points="142,-301 142,-339 "/>
<text text-anchor="start" x="150.5" y="-327.667" font-family="Times Roman,serif" font-size="10.00" fill="red">2</text>
<text text-anchor="start" x="157.5" y="-327.667" font-family="Times Roman,serif" font-size="10.00">:(7.0, 0.0)</text>
<polyline fill="none" stroke="black" points="142,-320 213,-320 "/>
<text text-anchor="start" x="156" y="-308.667" font-family="Times Roman,serif" font-size="10.00">0</text>
<polyline fill="none" stroke="black" points="177,-301 177,-320 "/>
<text text-anchor="start" x="191.5" y="-308.667" font-family="Times Roman,serif" font-size="10.00">0</text>
<polyline fill="none" stroke="black" points="213,-301 213,-339 "/>
<text text-anchor="start" x="221.5" y="-327.667" font-family="Times Roman,serif" font-size="10.00" fill="red">3</text>
<text text-anchor="start" x="228.5" y="-327.667" font-family="Times Roman,serif" font-size="10.00">:(15.0, 0.0)</text>
<polyline fill="none" stroke="black" points="213,-320 290,-320 "/>
<text text-anchor="start" x="228.5" y="-308.667" font-family="Times Roman,serif" font-size="10.00">0</text>
<polyline fill="none" stroke="black" points="251,-301 251,-320 "/>
<text text-anchor="start" x="267" y="-308.667" font-family="Times Roman,serif" font-size="10.00">0</text>
<polyline fill="none" stroke="black" points="290,-301 290,-339 "/>
<text text-anchor="start" x="298.5" y="-327.667" font-family="Times Roman,serif" font-size="10.00" fill="red">4</text>
<text text-anchor="start" x="305.5" y="-327.667" font-family="Times Roman,serif" font-size="10.00">:(19.0, 0.0)</text>
<polyline fill="none" stroke="black" points="290,-320 367,-320 "/>
<text text-anchor="start" x="305.5" y="-308.667" font-family="Times Roman,serif" font-size="10.00">0</text>
<polyline fill="none" stroke="black" points="328,-301 328,-320 "/>
<text text-anchor="start" x="344" y="-308.667" font-family="Times Roman,serif" font-size="10.00">0</text>
<polyline fill="none" stroke="black" points="367,-301 367,-339 "/>
<text text-anchor="start" x="375.5" y="-327.667" font-family="Times Roman,serif" font-size="10.00" fill="red">5</text>
<text text-anchor="start" x="382.5" y="-327.667" font-family="Times Roman,serif" font-size="10.00">:(200.0, 0.0)</text>
<polyline fill="none" stroke="black" points="367,-320 450,-320 "/>
<text text-anchor="start" x="384" y="-308.667" font-family="Times Roman,serif" font-size="10.00">0</text>
<polyline fill="none" stroke="black" points="408,-301 408,-320 "/>
<text text-anchor="start" x="425.5" y="-308.667" font-family="Times Roman,serif" font-size="10.00">0</text>
</g>
<!-- p_7__to_0_&#45;&gt;frac_p_7__to_0_ -->
<g id="edge2" class="edge"><title>p_7__to_0_&#45;&gt;frac_p_7__to_0_</title>
<path fill="none" stroke="black" d="M225,-376.461C225,-368.292 225,-358.494 225,-349.371"/>
<polygon fill="black" stroke="black" points="228.5,-349.109 225,-339.109 221.5,-349.109 228.5,-349.109"/>
</g>
<!-- p_1__to_0_ -->
<g id="node5" class="node"><title>p_1__to_0_</title>
<ellipse fill="none" stroke="black" cx="146" cy="-245" rx="58.8978" ry="18.3848"/>
<text text-anchor="middle" x="146" y="-241.4" font-family="Times Roman,serif" font-size="14.00">1.00,0.00</text>
</g>
<!-- frac_p_7__to_0_&#45;&gt;p_1__to_0_ -->
<g id="edge4" class="edge"><title>frac_p_7__to_0_&#45;&gt;p_1__to_0_</title>
<path fill="none" stroke="red" d="M204.656,-300.686C194.723,-291.256 182.658,-279.802 172.059,-269.739"/>
<polygon fill="red" stroke="red" points="164.652,-262.707 175.002,-266.329 168.278,-266.15 171.904,-269.592 171.904,-269.592 171.904,-269.592 168.278,-266.15 168.806,-272.856 164.652,-262.707 164.652,-262.707"/>
</g>
<!-- p_19__to_0_ -->
<g id="node13" class="node"><title>p_19__to_0_</title>
<ellipse fill="none" stroke="black" cx="305" cy="-245" rx="65.7609" ry="18.3848"/>
<text text-anchor="middle" x="305" y="-241.4" font-family="Times Roman,serif" font-size="14.00">19.00,0.00</text>
</g>
<!-- frac_p_7__to_0_&#45;&gt;p_19__to_0_ -->
<g id="edge12" class="edge"><title>frac_p_7__to_0_&#45;&gt;p_19__to_0_</title>
<path fill="none" stroke="black" d="M245.602,-300.686C255.586,-291.326 267.697,-279.971 278.373,-269.963"/>
<polygon fill="black" stroke="black" points="280.94,-272.354 285.841,-262.961 276.152,-267.247 280.94,-272.354"/>
</g>
<!-- frac_p_1__to_0_ -->
<g id="node6" class="node"><title>frac_p_1__to_0_</title>
<polygon fill="none" stroke="black" points="43,-151 43,-189 185,-189 185,-151 43,-151"/>
<text text-anchor="start" x="51.5" y="-177.667" font-family="Times Roman,serif" font-size="10.00" fill="red">0</text>
<text text-anchor="start" x="58.5" y="-177.667" font-family="Times Roman,serif" font-size="10.00">:(1.0, 0.0)</text>
<polyline fill="none" stroke="black" points="43,-170 114,-170 "/>
<text text-anchor="start" x="56.5" y="-158.667" font-family="Times Roman,serif" font-size="10.00">&#45;1</text>
<polyline fill="none" stroke="black" points="80,-151 80,-170 "/>
<text text-anchor="start" x="93.5" y="-158.667" font-family="Times Roman,serif" font-size="10.00">0</text>
<polyline fill="none" stroke="black" points="114,-151 114,-189 "/>
<text text-anchor="start" x="122.5" y="-177.667" font-family="Times Roman,serif" font-size="10.00" fill="red">1</text>
<text text-anchor="start" x="129.5" y="-177.667" font-family="Times Roman,serif" font-size="10.00">:(3.0, 0.0)</text>
<polyline fill="none" stroke="black" points="114,-170 185,-170 "/>
<text text-anchor="start" x="127.5" y="-158.667" font-family="Times Roman,serif" font-size="10.00">&#45;1</text>
<polyline fill="none" stroke="black" points="151,-151 151,-170 "/>
<text text-anchor="start" x="164.5" y="-158.667" font-family="Times Roman,serif" font-size="10.00">0</text>
</g>
<!-- p_1__to_0_&#45;&gt;frac_p_1__to_0_ -->
<g id="edge6" class="edge"><title>p_1__to_0_&#45;&gt;frac_p_1__to_0_</title>
<path fill="none" stroke="black" d="M138.09,-226.461C134.491,-218.026 130.151,-207.854 126.152,-198.481"/>
<polygon fill="black" stroke="black" points="129.297,-196.933 122.153,-189.109 122.858,-199.68 129.297,-196.933"/>
</g>
<!-- p_3__to_0_ -->
<g id="node9" class="node"><title>p_3__to_0_</title>
<ellipse fill="none" stroke="black" cx="114" cy="-95" rx="58.8978" ry="18.3848"/>
<text text-anchor="middle" x="114" y="-91.4" font-family="Times Roman,serif" font-size="14.00">3.00,0.00</text>
</g>
<!-- frac_p_1__to_0_&#45;&gt;p_3__to_0_ -->
<g id="edge8" class="edge"><title>frac_p_1__to_0_&#45;&gt;p_3__to_0_</title>
<path fill="none" stroke="black" d="M114,-150.686C114,-142.512 114,-132.819 114,-123.828"/>
<polygon fill="black" stroke="black" points="117.5,-123.731 114,-113.731 110.5,-123.731 117.5,-123.731"/>
</g>
<!-- frac_p_3__to_0_ -->
<g id="node10" class="node"><title>frac_p_3__to_0_</title>
<polygon fill="none" stroke="black" points="78.5,-1 78.5,-39 149.5,-39 149.5,-1 78.5,-1"/>
<text text-anchor="start" x="87" y="-27.6667" font-family="Times Roman,serif" font-size="10.00" fill="red">0</text>
<text text-anchor="start" x="94" y="-27.6667" font-family="Times Roman,serif" font-size="10.00">:(3.0, 0.0)</text>
<polyline fill="none" stroke="black" points="78.5,-20 149.5,-20 "/>
<text text-anchor="start" x="91" y="-8.66667" font-family="Times Roman,serif" font-size="10.00">&#45;1</text>
<polyline fill="none" stroke="black" points="113.5,-1 113.5,-20 "/>
<text text-anchor="start" x="126.5" y="-8.66667" font-family="Times Roman,serif" font-size="10.00">&#45;1</text>
</g>
<!-- p_3__to_0_&#45;&gt;frac_p_3__to_0_ -->
<g id="edge10" class="edge"><title>p_3__to_0_&#45;&gt;frac_p_3__to_0_</title>
<path fill="none" stroke="black" d="M114,-76.4607C114,-68.292 114,-58.4944 114,-49.3712"/>
<polygon fill="black" stroke="black" points="117.5,-49.1091 114,-39.1091 110.5,-49.1091 117.5,-49.1091"/>
</g>
<!-- frac_p_19__to_0_ -->
<g id="node14" class="node"><title>frac_p_19__to_0_</title>
<polygon fill="none" stroke="black" points="202.5,-151 202.5,-189 439.5,-189 439.5,-151 202.5,-151"/>
<text text-anchor="start" x="211" y="-177.667" font-family="Times Roman,serif" font-size="10.00" fill="red">0</text>
<text text-anchor="start" x="218" y="-177.667" font-family="Times Roman,serif" font-size="10.00">:(15.0, 0.0)</text>
<polyline fill="none" stroke="black" points="202.5,-170 279.5,-170 "/>
<text text-anchor="start" x="218" y="-158.667" font-family="Times Roman,serif" font-size="10.00">0</text>
<polyline fill="none" stroke="black" points="240.5,-151 240.5,-170 "/>
<text text-anchor="start" x="256.5" y="-158.667" font-family="Times Roman,serif" font-size="10.00">0</text>
<polyline fill="none" stroke="black" points="279.5,-151 279.5,-189 "/>
<text text-anchor="start" x="288" y="-177.667" font-family="Times Roman,serif" font-size="10.00" fill="red">1</text>
<text text-anchor="start" x="295" y="-177.667" font-family="Times Roman,serif" font-size="10.00">:(19.0, 0.0)</text>
<polyline fill="none" stroke="black" points="279.5,-170 356.5,-170 "/>
<text text-anchor="start" x="295" y="-158.667" font-family="Times Roman,serif" font-size="10.00">0</text>
<polyline fill="none" stroke="black" points="317.5,-151 317.5,-170 "/>
<text text-anchor="start" x="333.5" y="-158.667" font-family="Times Roman,serif" font-size="10.00">0</text>
<polyline fill="none" stroke="black" points="356.5,-151 356.5,-189 "/>
<text text-anchor="start" x="365" y="-177.667" font-family="Times Roman,serif" font-size="10.00" fill="red">2</text>
<text text-anchor="start" x="372" y="-177.667" font-family="Times Roman,serif" font-size="10.00">:(200.0, 0.0)</text>
<polyline fill="none" stroke="black" points="356.5,-170 439.5,-170 "/>
<text text-anchor="start" x="373.5" y="-158.667" font-family="Times Roman,serif" font-size="10.00">0</text>
<polyline fill="none" stroke="black" points="397.5,-151 397.5,-170 "/>
<text text-anchor="start" x="415" y="-158.667" font-family="Times Roman,serif" font-size="10.00">0</text>
</g>
<!-- p_19__to_0_&#45;&gt;frac_p_19__to_0_ -->
<g id="edge14" class="edge"><title>p_19__to_0_&#45;&gt;frac_p_19__to_0_</title>
<path fill="none" stroke="black" d="M308.955,-226.461C310.717,-218.203 312.833,-208.281 314.798,-199.074"/>
<polygon fill="black" stroke="black" points="318.26,-199.619 316.923,-189.109 311.414,-198.159 318.26,-199.619"/>
</g>
<!-- p_15__to_0_ -->
<g id="node17" class="node"><title>p_15__to_0_</title>
<ellipse fill="none" stroke="black" cx="289" cy="-95" rx="65.7609" ry="18.3848"/>
<text text-anchor="middle" x="289" y="-91.4" font-family="Times Roman,serif" font-size="14.00">15.00,0.00</text>
</g>
<!-- frac_p_19__to_0_&#45;&gt;p_15__to_0_ -->
<g id="edge16" class="edge"><title>frac_p_19__to_0_&#45;&gt;p_15__to_0_</title>
<path fill="none" stroke="red" d="M312.759,-150.686C309.131,-142.182 304.8,-132.031 300.836,-122.74"/>
<polygon fill="red" stroke="red" points="296.882,-113.473 304.945,-120.905 298.844,-118.072 300.806,-122.671 300.806,-122.671 300.806,-122.671 298.844,-118.072 296.667,-124.437 296.882,-113.473 296.882,-113.473"/>
</g>
<!-- p_200__to_0_ -->
<g id="node21" class="node"><title>p_200__to_0_</title>
<ellipse fill="none" stroke="black" cx="445" cy="-95" rx="72.1249" ry="18.3848"/>
<text text-anchor="middle" x="445" y="-91.4" font-family="Times Roman,serif" font-size="14.00">200.00,0.00</text>
</g>
<!-- frac_p_19__to_0_&#45;&gt;p_200__to_0_ -->
<g id="edge20" class="edge"><title>frac_p_19__to_0_&#45;&gt;p_200__to_0_</title>
<path fill="none" stroke="black" d="M352.611,-150.88C369.476,-140.68 390.325,-128.069 407.948,-117.411"/>
<polygon fill="black" stroke="black" points="410.086,-120.208 416.831,-112.038 406.463,-114.218 410.086,-120.208"/>
</g>
<!-- frac_p_15__to_0_ -->
<g id="node18" class="node"><title>frac_p_15__to_0_</title>
<polygon fill="none" stroke="black" points="250.5,-1 250.5,-39 327.5,-39 327.5,-1 250.5,-1"/>
<text text-anchor="start" x="259" y="-27.6667" font-family="Times Roman,serif" font-size="10.00" fill="red">0</text>
<text text-anchor="start" x="266" y="-27.6667" font-family="Times Roman,serif" font-size="10.00">:(15.0, 0.0)</text>
<polyline fill="none" stroke="black" points="250.5,-20 327.5,-20 "/>
<text text-anchor="start" x="264.5" y="-8.66667" font-family="Times Roman,serif" font-size="10.00">&#45;1</text>
<polyline fill="none" stroke="black" points="288.5,-1 288.5,-20 "/>
<text text-anchor="start" x="303" y="-8.66667" font-family="Times Roman,serif" font-size="10.00">&#45;1</text>
</g>
<!-- p_15__to_0_&#45;&gt;frac_p_15__to_0_ -->
<g id="edge18" class="edge"><title>p_15__to_0_&#45;&gt;frac_p_15__to_0_</title>
<path fill="none" stroke="black" d="M289,-76.4607C289,-68.292 289,-58.4944 289,-49.3712"/>
<polygon fill="black" stroke="black" points="292.5,-49.1091 289,-39.1091 285.5,-49.1091 292.5,-49.1091"/>
</g>
<!-- frac_p_200__to_0_ -->
<g id="node22" class="node"><title>frac_p_200__to_0_</title>
<polygon fill="none" stroke="black" points="403.5,-1 403.5,-39 486.5,-39 486.5,-1 403.5,-1"/>
<text text-anchor="start" x="412" y="-27.6667" font-family="Times Roman,serif" font-size="10.00" fill="red">0</text>
<text text-anchor="start" x="419" y="-27.6667" font-family="Times Roman,serif" font-size="10.00">:(200.0, 0.0)</text>
<polyline fill="none" stroke="black" points="403.5,-20 486.5,-20 "/>
<text text-anchor="start" x="419" y="-8.66667" font-family="Times Roman,serif" font-size="10.00">&#45;1</text>
<polyline fill="none" stroke="black" points="444.5,-1 444.5,-20 "/>
<text text-anchor="start" x="460.5" y="-8.66667" font-family="Times Roman,serif" font-size="10.00">&#45;1</text>
</g>
<!-- p_200__to_0_&#45;&gt;frac_p_200__to_0_ -->
<g id="edge22" class="edge"><title>p_200__to_0_&#45;&gt;frac_p_200__to_0_</title>
<path fill="none" stroke="black" d="M445,-76.4607C445,-68.292 445,-58.4944 445,-49.3712"/>
<polygon fill="black" stroke="black" points="448.5,-49.1091 445,-39.1091 441.5,-49.1091 448.5,-49.1091"/>
</g>
</g>
</svg>
